<svg width="1440" height="547" viewBox="0 0 1440 547" fill="none" xmlns="http://www.w3.org/2000/svg">
<g clip-path="url(#clip0_136_1404)">
<rect width="1440" height="547" fill="#71717A"/>
<rect width="1440" height="547" fill="#FAF7E5"/>
<path d="M-4.6 543.926C-3.4 542.857 -1.6 542.857 -0.399999 543.926C0.8 544.995 0.8 546.598 -0.399999 547.667C-1.6 548.736 -3.4 548.736 -4.6 547.667C-5.8 546.598 -5.8 544.861 -4.6 543.926Z" fill="#A2DFF4"/>
<path d="M36.4774 545.976C37.7003 544.907 39.5347 544.907 40.7576 545.976C41.9805 547.045 41.9805 548.648 40.7576 549.717C39.5347 550.786 37.7003 550.786 36.4774 549.717C35.4073 548.648 35.4073 546.911 36.4774 545.976Z" fill="#A2DFF4"/>
<path d="M14.7999 526.555C15.9999 525.486 17.7999 525.486 18.9999 526.555C20.1999 527.624 20.1999 529.227 18.9999 530.296C17.7999 531.365 15.9999 531.365 14.7999 530.296C13.5999 529.227 13.5999 527.624 14.7999 526.555Z" fill="#A2DFF4"/>
<path d="M58 533.147C59.6569 533.147 61 531.95 61 530.474C61 528.998 59.6569 527.802 58 527.802C56.3431 527.802 55 528.998 55 530.474C55 531.95 56.3431 533.147 58 533.147Z" fill="#A2DFF4"/>
<path d="M34.1998 509.271C35.3998 508.202 37.1998 508.202 38.3998 509.271C39.5998 510.341 39.5998 511.944 38.3998 513.013C37.1998 514.082 35.3998 514.082 34.1998 513.013C32.9998 511.944 32.9998 510.341 34.1998 509.271Z" fill="#A2DFF4"/>
<path d="M12.5001 489.94C13.7001 488.871 15.5001 488.871 16.7001 489.94C17.9001 491.009 17.9001 492.613 16.7001 493.682C15.5001 494.751 13.7001 494.751 12.5001 493.682C11.3001 492.613 11.3001 490.876 12.5001 489.94Z" fill="#A2DFF4"/>
<path d="M97.0774 530.742C98.3004 529.673 100.135 529.673 101.358 530.742C102.581 531.811 102.581 533.415 101.358 534.484C100.135 535.553 98.3004 535.553 97.0774 534.484C96.0074 533.415 96.0074 531.678 97.0774 530.742Z" fill="#A2DFF4"/>
<path d="M75.4 511.321C76.6 510.252 78.4 510.252 79.6 511.321C80.8 512.39 80.8 513.994 79.6 515.063C78.4 516.132 76.6 516.132 75.4 515.063C74.2 513.994 74.2 512.39 75.4 511.321Z" fill="#A2DFF4"/>
<path d="M53.5775 491.989C54.8004 490.92 56.6348 490.92 57.8577 491.989C59.0806 493.058 59.0806 494.662 57.8577 495.731C56.6348 496.8 54.8004 496.8 53.5775 495.731C52.5074 494.662 52.5074 492.925 53.5775 491.989Z" fill="#A2DFF4"/>
<path d="M34 477.113C35.6569 477.113 37 475.916 37 474.44C37 472.964 35.6569 471.768 34 471.768C32.3431 471.768 31 472.964 31 474.44C31 475.916 32.3431 477.113 34 477.113Z" fill="#A2DFF4"/>
<path d="M10.1998 453.237C11.3998 452.168 13.1998 452.168 14.3998 453.237C15.5998 454.306 15.5998 455.91 14.3998 456.979C13.1998 458.048 11.3998 458.048 10.1998 456.979C8.9998 455.91 8.9998 454.306 10.1998 453.237Z" fill="#A2DFF4"/>
<path d="M116.478 513.37C117.701 512.301 119.535 512.301 120.758 513.37C121.981 514.439 121.981 516.043 120.758 517.112C119.535 518.181 117.701 518.181 116.478 517.112C115.408 516.043 115.408 514.439 116.478 513.37Z" fill="#A2DFF4"/>
<path d="M94.8004 494.039C96.0004 492.97 97.8004 492.97 99.0004 494.039C100.2 495.108 100.2 496.712 99.0004 497.781C97.8004 498.85 96.0004 498.85 94.8004 497.781C93.6004 496.712 93.6004 495.108 94.8004 494.039Z" fill="#A2DFF4"/>
<path d="M73.1002 474.707C74.3002 473.638 76.1002 473.638 77.3002 474.707C78.5002 475.776 78.5002 477.38 77.3002 478.449C76.1002 479.518 74.3002 479.518 73.1002 478.449C71.9002 477.38 71.9002 475.642 73.1002 474.707Z" fill="#A2DFF4"/>
<path d="M53.4004 459.83C55.0572 459.83 56.4004 458.634 56.4004 457.158C56.4004 455.682 55.0572 454.485 53.4004 454.485C51.7435 454.485 50.4004 455.682 50.4004 457.158C50.4004 458.634 51.7435 459.83 53.4004 459.83Z" fill="#A2DFF4"/>
<path d="M31.7002 440.498C33.357 440.498 34.7002 439.302 34.7002 437.826C34.7002 436.35 33.357 435.153 31.7002 435.153C30.0433 435.153 28.7002 436.35 28.7002 437.826C28.7002 439.302 30.0433 440.498 31.7002 440.498Z" fill="#A2DFF4"/>
<path d="M138.1 500.631C139.757 500.631 141.1 499.435 141.1 497.959C141.1 496.483 139.757 495.286 138.1 495.286C136.443 495.286 135.1 496.483 135.1 497.959C135.1 499.435 136.443 500.631 138.1 500.631Z" fill="#A2DFF4"/>
<path d="M116.3 481.299C117.957 481.299 119.3 480.103 119.3 478.627C119.3 477.151 117.957 475.954 116.3 475.954C114.643 475.954 113.3 477.151 113.3 478.627C113.3 480.103 114.643 481.299 116.3 481.299Z" fill="#A2DFF4"/>
<path d="M92.5001 457.335C93.7001 456.266 95.5001 456.266 96.7001 457.335C97.9001 458.404 97.9001 460.008 96.7001 461.077C95.5001 462.146 93.7001 462.146 92.5001 461.077C91.3001 460.008 91.3001 458.404 92.5001 457.335Z" fill="#A2DFF4"/>
<path d="M70.7999 438.004C71.9999 436.935 73.7999 436.935 74.9999 438.004C76.1999 439.073 76.1999 440.676 74.9999 441.746C73.7999 442.815 71.9999 442.815 70.7999 441.746C69.5999 440.676 69.5999 438.939 70.7999 438.004Z" fill="#A2DFF4"/>
<path d="M49.0001 418.583C50.2001 417.514 52.0001 417.514 53.2001 418.583C54.4001 419.652 54.4001 421.256 53.2001 422.325C52.0001 423.394 50.2001 423.394 49.0001 422.325C47.8001 421.389 47.8001 419.652 49.0001 418.583Z" fill="#A2DFF4"/>
<path d="M4.4 542.145C5.6 541.076 7.4 541.076 8.6 542.145C9.8 543.214 9.8 544.817 8.6 545.886C7.4 546.955 5.6 546.955 4.4 545.886C3.2 544.817 3.2 543.08 4.4 542.145Z" fill="#AEA1F7"/>
<path d="M45.4774 544.194C46.7003 543.125 48.5347 543.125 49.7576 544.194C50.9805 545.263 50.9805 546.867 49.7576 547.936C48.5347 549.005 46.7003 549.005 45.4774 547.936C44.4073 546.867 44.4073 545.13 45.4774 544.194Z" fill="#C7ACFE"/>
<path d="M23.7999 524.773C24.9999 523.704 26.7999 523.704 27.9999 524.773C29.1999 525.842 29.1999 527.446 27.9999 528.515C26.7999 529.584 24.9999 529.584 23.7999 528.515C22.5999 527.446 22.5999 525.842 23.7999 524.773Z" fill="#C7ACFE"/>
<path d="M4.1001 509.986C5.75695 509.986 7.1001 508.789 7.1001 507.313C7.1001 505.837 5.75695 504.641 4.1001 504.641C2.44324 504.641 1.1001 505.837 1.1001 507.313C1.1001 508.789 2.44324 509.986 4.1001 509.986Z" fill="#C7ACFE"/>
<path d="M88.7998 550.787C90.4567 550.787 91.7998 549.59 91.7998 548.114C91.7998 546.638 90.4567 545.441 88.7998 545.441C87.143 545.441 85.7998 546.638 85.7998 548.114C85.7998 549.59 87.143 550.787 88.7998 550.787Z" fill="#C7ACFE"/>
<path d="M67 531.366C68.6569 531.366 70 530.169 70 528.693C70 527.217 68.6569 526.021 67 526.021C65.3431 526.021 64 527.217 64 528.693C64 530.169 65.3431 531.366 67 531.366Z" fill="#C7ACFE"/>
<path d="M43.1998 507.49C44.3998 506.421 46.1998 506.421 47.3998 507.49C48.5998 508.559 48.5998 510.163 47.3998 511.232C46.1998 512.301 44.3998 512.301 43.1998 511.232C41.9998 510.163 41.9998 508.559 43.1998 507.49Z" fill="#C7ACFE"/>
<path d="M21.5001 488.159C22.7001 487.09 24.5001 487.09 25.7001 488.159C26.9001 489.228 26.9001 490.832 25.7001 491.901C24.5001 492.97 22.7001 492.97 21.5001 491.901C20.3001 490.832 20.3001 489.095 21.5001 488.159Z" fill="#C7ACFE"/>
<path d="M-0.322452 468.738C0.900478 467.669 2.73487 467.669 3.9578 468.738C5.18073 469.807 5.18073 471.411 3.9578 472.48C2.73487 473.549 0.900478 473.549 -0.322452 472.48C-1.39252 471.411 -1.39252 469.807 -0.322452 468.738Z" fill="#C7ACFE"/>
<path d="M106.077 528.961C107.3 527.892 109.135 527.892 110.358 528.961C111.581 530.03 111.581 531.634 110.358 532.703C109.135 533.772 107.3 533.772 106.077 532.703C105.007 531.634 105.007 529.896 106.077 528.961Z" fill="#C7ACFE"/>
<path d="M84.4 509.54C85.6 508.471 87.4 508.471 88.6 509.54C89.8 510.609 89.8 512.213 88.6 513.282C87.4 514.351 85.6 514.351 84.4 513.282C83.2 512.213 83.2 510.609 84.4 509.54Z" fill="#C7ACFE"/>
<path d="M62.5775 490.208C63.8004 489.139 65.6348 489.139 66.8577 490.208C68.0806 491.277 68.0806 492.881 66.8577 493.95C65.6348 495.019 63.8004 495.019 62.5775 493.95C61.5074 492.881 61.5074 491.143 62.5775 490.208Z" fill="#C7ACFE"/>
<path d="M43 475.331C44.6569 475.331 46 474.135 46 472.659C46 471.183 44.6569 469.986 43 469.986C41.3431 469.986 40 471.183 40 472.659C40 474.135 41.3431 475.331 43 475.331Z" fill="#C7ACFE"/>
<path d="M19.1998 451.456C20.3998 450.387 22.1998 450.387 23.3998 451.456C24.5998 452.525 24.5998 454.129 23.3998 455.198C22.1998 456.267 20.3998 456.267 19.1998 455.198C17.9998 454.129 17.9998 452.525 19.1998 451.456Z" fill="#C7ACFE"/>
<path d="M125.478 511.589C126.701 510.52 128.535 510.52 129.758 511.589C130.981 512.658 130.981 514.261 129.758 515.33C128.535 516.399 126.701 516.399 125.478 515.33C124.408 514.261 124.408 512.658 125.478 511.589Z" fill="#C7ACFE"/>
<path d="M103.8 492.258C105 491.189 106.8 491.189 108 492.258C109.2 493.327 109.2 494.93 108 495.999C106.8 497.068 105 497.068 103.8 495.999C102.6 494.93 102.6 493.327 103.8 492.258Z" fill="#C7ACFE"/>
<path d="M82.1002 472.926C83.3002 471.857 85.1002 471.857 86.3002 472.926C87.5002 473.995 87.5002 475.598 86.3002 476.667C85.1002 477.736 83.3002 477.736 82.1002 476.667C80.9002 475.598 80.9002 473.861 82.1002 472.926Z" fill="#C7ACFE"/>
<path d="M62.4004 458.049C64.0572 458.049 65.4004 456.853 65.4004 455.377C65.4004 453.901 64.0572 452.704 62.4004 452.704C60.7435 452.704 59.4004 453.901 59.4004 455.377C59.4004 456.853 60.7435 458.049 62.4004 458.049Z" fill="#C7ACFE"/>
<path d="M40.7002 438.717C42.357 438.717 43.7002 437.521 43.7002 436.045C43.7002 434.569 42.357 433.372 40.7002 433.372C39.0433 433.372 37.7002 434.569 37.7002 436.045C37.7002 437.521 39.0433 438.717 40.7002 438.717Z" fill="#C7ACFE"/>
<path d="M147.1 498.85C148.757 498.85 150.1 497.653 150.1 496.177C150.1 494.701 148.757 493.505 147.1 493.505C145.443 493.505 144.1 494.701 144.1 496.177C144.1 497.653 145.443 498.85 147.1 498.85Z" fill="#C7ACFE"/>
<path d="M125.3 479.518C126.957 479.518 128.3 478.321 128.3 476.845C128.3 475.369 126.957 474.173 125.3 474.173C123.643 474.173 122.3 475.369 122.3 476.845C122.3 478.321 123.643 479.518 125.3 479.518Z" fill="#C7ACFE"/>
<path d="M101.5 455.554C102.7 454.485 104.5 454.485 105.7 455.554C106.9 456.623 106.9 458.226 105.7 459.295C104.5 460.364 102.7 460.364 101.5 459.295C100.3 458.226 100.3 456.623 101.5 455.554Z" fill="#C7ACFE"/>
<path d="M79.7999 436.223C80.9999 435.154 82.7999 435.154 83.9999 436.223C85.1999 437.292 85.1999 438.895 83.9999 439.964C82.7999 441.033 80.9999 441.033 79.7999 439.964C78.5999 438.895 78.5999 437.158 79.7999 436.223Z" fill="#C7ACFE"/>
<path d="M58.0001 416.802C59.2001 415.733 61.0001 415.733 62.2001 416.802C63.4001 417.871 63.4001 419.474 62.2001 420.543C61.0001 421.612 59.2001 421.612 58.0001 420.543C56.8001 419.608 56.8001 417.871 58.0001 416.802Z" fill="#C7ACFE"/>
</g>
<defs>
<clipPath id="clip0_136_1404">
<rect width="1440" height="547" fill="white"/>
</clipPath>
</defs>
</svg>
